<?xml version="1.0" standalone="no"?>
<!DOCTYPE svg PUBLIC "-//W3C//DTD SVG 20010904//EN"
 "http://www.w3.org/TR/2001/REC-SVG-20010904/DTD/svg10.dtd">
<svg version="1.0" xmlns="http://www.w3.org/2000/svg"
 width="512.000000pt" height="512.000000pt" viewBox="0 0 512.000000 512.000000"
 preserveAspectRatio="xMidYMid meet">
<metadata>
Created by potrace 1.16, written by Peter Selinger 2001-2019
</metadata>
<g transform="translate(0.000000,512.000000) scale(0.100000,-0.100000)"
fill="#fff" stroke="none">
<path d="M2305 5114 c-109 -11 -310 -49 -420 -79 -999 -274 -1733 -1114 -1870
-2140 -20 -148 -20 -494 0 -655 117 -944 756 -1752 1649 -2084 274 -103 505
-146 816 -153 261 -6 390 4 603 47 985 200 1782 993 1985 1975 44 210 54 335
49 580 -5 242 -19 359 -64 550 -56 239 -174 527 -305 744 -133 219 -369 489
-573 653 -343 278 -747 461 -1186 538 -102 18 -171 22 -384 25 -143 2 -278 1
-300 -1z m-485 -883 c24 -16 69 -61 99 -99 204 -256 183 -462 -86 -855 -53
-78 -119 -176 -147 -217 l-49 -74 -22 -180 c-13 -107 -17 -173 -11 -162 74
127 183 253 268 311 131 88 258 126 422 126 201 0 343 -47 442 -146 86 -86
121 -174 131 -325 7 -113 -6 -185 -48 -269 -96 -192 -399 -373 -663 -398 -76
-7 -74 1 -29 -128 55 -155 137 -266 231 -312 49 -24 69 -28 143 -28 78 0 91 3
160 37 90 45 201 143 324 287 50 58 108 124 130 147 100 104 163 52 151 -126
-14 -207 -101 -377 -290 -566 -163 -163 -313 -246 -501 -279 -111 -19 -166
-19 -240 0 -87 23 -151 62 -238 144 -133 127 -249 325 -387 659 -35 83 -65
150 -67 148 -5 -4 -15 -188 -32 -543 -8 -153 -15 -223 -27 -252 -38 -95 -212
-200 -361 -217 -179 -20 -252 112 -253 456 -1 458 76 1002 226 1605 84 338
145 528 244 766 124 295 232 469 315 505 53 23 117 17 165 -15z m2317 -2582
c77 -29 113 -99 113 -219 0 -175 -62 -323 -190 -450 -102 -102 -150 -125 -260
-124 -124 0 -185 27 -275 118 -39 39 -83 94 -98 123 l-28 52 37 73 c104 208
287 374 465 422 64 17 196 20 236 5z"/>
<path d="M1985 2591 c-111 -50 -246 -213 -358 -430 -26 -51 -46 -96 -43 -98 8
-8 188 17 271 38 176 44 329 148 376 254 43 97 20 201 -51 237 -47 24 -143 23
-195 -1z"/>
</g>
</svg>
